<svg id="Calque_2" data-name="Calque 2" xmlns="http://www.w3.org/2000/svg" viewBox="0 0 677.01 599.55"><defs><style>.cls-1{fill:#e6e6e6;}.cls-2{fill:#fff;}.cls-3{fill:#ccc;}.cls-4{fill:#838bb6;}</style></defs><title>Dozzo</title><rect class="cls-1" width="599.55" height="599.55" rx="119.06" ry="119.06"/><path class="cls-2" d="M275.79,510c16-44.65,125.16-70.35,166.94-26.19,20.34,21.5,23.68,57.9,24,68.74A154.12,154.12,0,0,1,462.37,594c-2.4,8.63-4.48,12.28-6.55,22.91-3.52,18.15-.6,23.59-4.36,26.19-8.85,6.12-26.65-22.84-55.65-22.91-14.14,0-25.21,6.82-37.09,14.18-18.19,11.27-23.64,22.28-45.83,32.73-9.93,4.68-14.9,7-18.55,5.46-14-6,.11-44.39-7.64-101.47C281,529.31,270.2,525.55,275.79,510Z" transform="translate(-66.58 -321.2)"/><path class="cls-3" d="M413.27,632.16c-7.92,4.8-2.59,19-4.36,45.82-1.91,28.83-10.05,42.07-4.37,45.83,6.87,4.55,24.15-11.21,26.19-13.09,5.76-5.33,27.91-25.81,21.82-50.19a39.83,39.83,0,0,0-21.82-26.19C426,632.26,418.57,629,413.27,632.16Z" transform="translate(-66.58 -321.2)"/><path class="cls-2" d="M463.46,615.79c-11.68,6.08-11,37.79-10.91,44.74.25,12.55,2.53,15.77,0,24-4.45,14.48-17.22,23.09-21.82,26.19-14.31,9.63-20.67,6-26.19,13.09-8.6,11.07-3.73,33.63,7.64,46.92,16.39,19.16,45.09,17.66,69.83,16.36,46.39-2.43,80.75-19.8,101.47-30.55,1.47-.76.95-.51,76.38-53.46,16.68-11.71,26.62-18.68,25.09-22.91-2.84-7.87-39.61,9.77-87.29,1.09-38.42-7-72.06-28.93-82.92-36C486.4,626.77,473.34,610.65,463.46,615.79Z" transform="translate(-66.58 -321.2)"/><g id="Calque_1" data-name="Calque 1"><path class="cls-4" d="M332.41,920.75h-25L260.59,445.58l5.56-64.09,20,64.09,4.05,39.49q47.54-43.38,102.16-43.38,37.43,0,62.21,22.66t24.78,57a213.66,213.66,0,0,1-2.78,30.75l-6.32,41.76q66.49,66.36,165.13,66.35,61.7,0,108.23-40.2Q691,712.26,621.7,760T471,807.78q-36.17,0-58.67-13-22.77-13-20.49-32.43l12.65-116.76q-49.34,0-93.6,51.14Zm-25-259.27q47.29-47.91,97.11-47.91,29.58,0,47.54,18.27L461.38,573q3.28-21,3.28-33.94,0-28.12-21.24-46.23t-54.37-18.11q-39.45,0-95.84,42.73ZM465.42,628,454.8,691.53q-2.54,14.91-30.85,32.73-3.54,2.28-10.62,7.13a19.31,19.31,0,0,0-3.79,11q0,16.19,14.28,24.28t42.61,8.09q111.78,0,191.18-83.19-19,1.62-27.06,1.62Q530.67,693.2,465.42,628ZM410,715.21q5.06-3.57,7.84-5.2Q445.94,691.8,446,674.9q0-20.14-29.08-27.63Z" transform="translate(-66.58 -321.2)"/></g></svg>